<svg xmlns="http://www.w3.org/2000/svg" width="2100" height="1180" viewBox="0 0 2100 1180"><defs><linearGradient id="a" x1="50%" x2="50%" y1="0%" y2="109.467%"><stop offset="0%" stop-color="#1E4488"/><stop offset="39.696%" stop-color="#10659C"/><stop offset="68.064%" stop-color="#7BABBF"/><stop offset="84.875%" stop-color="#E9C39F"/><stop offset="100%" stop-color="#FF9A4A"/></linearGradient><linearGradient id="b" x1="0%" y1="0%" y2="100%"><stop offset="0%" stop-color="#FFF" stop-opacity=".1"/><stop offset="100%" stop-color="#FFF" stop-opacity="0"/></linearGradient><linearGradient id="c" x1="0%" y1="100%" y2="0%"><stop offset="0%" stop-color="#FFF" stop-opacity=".1"/><stop offset="100%" stop-color="#FFF" stop-opacity="0"/></linearGradient><linearGradient id="d" x1="100%" x2="12.939%" y1="0%" y2="91.191%"><stop offset="0%" stop-color="#FFF" stop-opacity=".1"/><stop offset="100%" stop-color="#FFF" stop-opacity="0"/></linearGradient><linearGradient id="e" x1="119.967%" x2="11.964%" y1="-19.849%" y2="90.184%"><stop offset="0%" stop-color="#FFF" stop-opacity=".1"/><stop offset="100%" stop-color="#FFF" stop-opacity="0"/></linearGradient><linearGradient id="f" x1="0%" y1="100%" y2="8.797%"><stop offset="0%" stop-color="#FFF" stop-opacity=".1"/><stop offset="100%" stop-color="#FFF" stop-opacity="0"/></linearGradient><linearGradient id="g" x1="0%" x2="85.032%" y1="0%" y2="84.076%"><stop offset="0%" stop-color="#FFF" stop-opacity=".1"/><stop offset="100%" stop-color="#FFF" stop-opacity="0"/></linearGradient><linearGradient id="h" x1="64.285%" x2="0%" y1="0%" y2="0%"><stop offset="0%" stop-color="#FFF" stop-opacity=".1"/><stop offset="100%" stop-color="#FFF" stop-opacity="0"/></linearGradient><linearGradient id="i" x1="20.049%" x2="79.496%" y1="15.699%" y2="77.038%"><stop offset="0%" stop-color="#FFF" stop-opacity=".1"/><stop offset="100%" stop-color="#FFF" stop-opacity="0"/></linearGradient></defs><g fill="none" fill-rule="evenodd"><path fill="url(#a)" d="M0 0h2184v717H0z" transform="translate(-42 -2)"/><path fill="#FFF" fill-opacity=".1" d="M634.1580197 215.9688c8.2254986-.456 16.4858974-.732 24.6774929-1.624.2343304-.025.2462963-.374 0-.375-8.2274929-.038-16.4609687.547-24.6774929.948-8.2195157.4-16.4968661.652-24.6774929 1.58-.28618233.033-.3031339.458 0 .461 8.22250713.076 16.4709402-.535 24.6774929-.99z"/><path fill="url(#b)" d="M99.2885185 158.9934c14.6002845 13.253 29.3182335 26.438 44.3782055 39.165.266239.224.652136-.153.385897-.387-14.817664-13.031-29.696154-25.975-44.3462962-39.197-14.6501425-13.221-28.8834758-26.902-43.5396012-40.111 13.7925926 14.08 28.534473 27.287 43.1217949 40.53z" transform="translate(609.26 95)"/><path fill="url(#c)" d="M51.0591168 123.7912c.0448718-.137-.158547-.185-.2103989-.058-2.28547 5.638-4.5160968 11.24-6.2371794 17.089-.0309117.107.138604.185.18547.078 2.455983-5.586 4.3725072-11.316 6.2621083-17.109z" transform="translate(609.26 95)"/><path fill="url(#d)" d="M176.811624 175.793c8.286325-6.817 16.722222-13.492 24.790171-20.571.14359-.126-.052849-.389-.207408-.269-8.259401 6.362-16.208689 13.144-24.262678 19.764-8.29829 6.82-16.666381 13.527-24.724359 20.636-.064814.058.023932.177.09473.123 8.28433-6.345 16.252564-13.054 24.309544-19.683z" transform="translate(609.26 95)"/><path fill="url(#e)" d="M115.817991 227.2518c-9.33433 7.153-18.8581192 14.041-28.4098286 20.898-.4497151.323-.0289174 1.075.4407407.756 9.8448718-6.699 19.4264959-13.794 28.8615389-21.06 9.189743-7.078 18.492165-14.203 27.043732-22.054.232336-.214-.085755-.648-.345014-.448-9.300428 7.167-18.268804 14.762-27.591169 21.908z" transform="translate(609.26 95)"/><path fill="url(#f)" d="M62.9671937 74.4168c.0578348-.41-.52849-.603-.6381766-.177-3.0652422 11.815-4.8311966 24.012-6.9840456 36.015-.0279202.156.2054131.225.2403134.066 2.62151-11.9 5.6688034-23.827 7.3819088-35.904z" transform="translate(609.26 95)"/><path fill="url(#g)" d="M240.796211 198.5441c.21339.261.67906-.094.470655-.364-9.933618-12.91-20.815527-25.179-32.298718-36.719-.049857-.05-.124644.025-.07678.077 11.032478 12.01 21.594302 24.371 31.904843 37.006z" transform="translate(609.26 95)"/><path fill="#FFF" fill-opacity=".1" d="M1134.553661 135.9205c.293162-.161.035897-.566-.255271-.439-8.794871 3.841-17.58376 8.226-25.917948 12.983-.048861.028-.014958.116.038888.093 8.860684-3.71 17.716382-8.001 26.134331-12.637z"/><path fill="url(#h)" d="M428.931083 55.4775c19.923077.256 39.912963.671 59.829059-.027.395869-.014.397864-.608 0-.617-19.933048-.473-39.891025-.181-59.829059-.416-19.916097-.234-39.902992-1.231-59.816097-.923-.228348.004-.222365.335 0 .352 19.839316 1.507 39.92792 1.376 59.816097 1.631z" transform="translate(609.26 95)"/><path fill="#FFF" fill-opacity=".1" d="M1209.679516 135.1551c22.085897.96 44.15584 2.27 66.201852 3.916 12.502279.934 24.991595 2.023 37.482906 3.092.736894.063.724928-1.076 0-1.148-43.979345-4.374-88.201995-6.84-132.370798-8.155-12.522222-.373-25.078348-.839-37.605556-.475-.397863.011-.394872.596 0 .617 22.068946 1.183 44.207693 1.192 66.291596 2.153zM1350.236923 167.5481c5.76453 6.537 11.605841 13.006 17.521937 19.407 11.930912 12.907 24.12208 25.625 36.749003 37.852.371938.359.934331-.203.567379-.569-12.342735-12.313-24.572792-24.712-36.445869-37.483-5.826353-6.266-11.579914-12.599-17.261681-18.998-5.852279-6.591-11.334615-13.758-17.577777-19.972-.093733-.093-.271226.032-.189459.147 4.905983 6.937 11.022507 13.251 16.636467 19.616zM1298.997422 312.1535c8.711111-6.418 17.389316-12.882 26.034615-19.39 17.200855-12.947 34.275071-26.064 51.208689-39.362 9.649431-7.578 19.331767-15.139 28.803704-22.941.547436-.451-.229345-1.199-.771795-.773-34.271082 26.918-68.434473 53.894-103.488319 79.793-9.626495 7.113-19.520228 13.944-28.858547 21.435-.218376.175.064815.537.297151.387 9.204701-5.944 17.954701-12.651 26.774502-19.149zM1171.176524 188.7536c.106695.183.381909.021.283191-.166-8.860684-16.752-18.44131-33.089-27.699857-49.62-.029915-.053-.109687-.006-.08077.047 9.145869 16.596 17.955698 33.366 27.497436 49.739z"/><path fill="#FFF" d="M1083.964103 119.2375c-.166525-.181-.411824.081-.265243.266 6.197294 7.775 12.669801 15.337 18.73547 23.218.041881.055.135613.003.093733-.055-5.868234-8.049-11.84416-16.059-18.56396-23.429z" opacity=".1"/><path fill="#FFF" fill-opacity=".1" d="M1351.418547 113.9699c.137607-.128-.063818-.322-.204416-.204-6.368803 5.372-12.528205 10.966-18.683618 16.582-.093732.085.042877.219.137607.138 6.328917-5.422 12.635897-10.85 18.750427-16.516z"/><path fill="url(#i)" d="M817.657336 155.6864c.427778.459 1.092878-.221.683049-.685-5.669801-6.427-11.299715-13.213-17.569801-19.059-.214387-.2-.624216.074-.427778.331 5.234046 6.834 11.449288 13.122 17.31453 19.413z" transform="translate(609.26 95)"/><path fill="#FFF" fill-opacity=".1" d="M1238.64396 275.912c-.152564-.241-.527493-.024-.382906.225 9.596581 16.561 19.320798 33.06 29.116809 49.502.040883.069.146581.008.107693-.063-9.227636-16.755-18.582906-33.515-28.841596-49.664zM1285.93943 187.8415c-.308119.469.421795.874.739886.434 8.769943-12.133 18.261824-23.381 28.876496-33.935.126638-.125-.061823-.308-.19245-.193-11.141168 9.801-21.250285 21.285-29.423932 33.694zM1193.024501 95.6139618c.246297-.168.018946-.57-.235327-.405-16.736183 10.847-33.275926 21.956-49.673077 33.295-.093732.065-.00698.218.090741.155 16.764102-10.772 33.374643-21.768 49.817663-33.045z"/><g fill="#FFF" transform="translate(457.692 124)"><ellipse cx="682.55" cy="9.5" rx="1.496" ry="1.5"/><ellipse cx="649.644" cy="25.5" rx="1.496" ry="1.5"/><path d="M950.783476 105c.826067 0 1.495726-.671573 1.495726-1.5s-.669659-1.5-1.495726-1.5c-.826067 0-1.495727.671573-1.495727 1.5s.66966 1.5 1.495727 1.5z"/><ellipse cx="194.943" cy="114.5" fill-opacity=".3" rx="1.496" ry="1.5"/><ellipse cx="115.171" cy="195.5" fill-opacity=".3" rx="1.496" ry="1.5"/><ellipse cx="205.912" cy="88.5" rx="1.496" ry="1.5"/><ellipse cx="1168.162" cy="28.5" fill-opacity=".3" rx="1.496" ry="1.5"/><ellipse cx="953.775" cy="217.5" fill-opacity=".3" rx="1.496" ry="1.5"/><ellipse cx="978.704" cy="195.5" fill-opacity=".3" rx="1.496" ry="1.5"/><ellipse cx="1027.564" cy="239.5" fill-opacity=".3" rx="1.496" ry="1.5"/><ellipse cx="867.521" cy="16" fill-opacity=".05" rx="15.954" ry="16"/><ellipse cx="868.02" cy="16.5" fill-opacity=".15" rx="10.47" ry="10.5"/><ellipse cx="868.02" cy="16.5" rx="2.493" ry="2.5"/><ellipse cx="2.493" cy="194.5" rx="2.493" ry="2.5"/><ellipse cx="1094.373" cy="184.5" rx="2.493" ry="2.5"/><ellipse cx="1174.145" cy="114.5" rx="2.493" ry="2.5"/><ellipse cx="1031.553" cy="62.5" fill-opacity=".3" rx="2.493" ry="2.5"/><ellipse cx="39.387" cy="76.5" fill-opacity=".3" rx="2.493" ry="2.5"/><ellipse cx="151.068" cy="92.5" rx="2.493" ry="2.5"/><ellipse cx="297.65" cy="313.5" fill-opacity=".3" rx="2.493" ry="2.5"/></g></g></svg>