<svg xmlns="http://www.w3.org/2000/svg" xmlns:xlink="http://www.w3.org/1999/xlink" width="54" height="129"><defs><g id="icon-far"><defs><linearGradient id="icon-far-b" x1="108.006%" x2="10.977%" y1="-6.396%" y2="100%"><stop offset="0%" stop-color="#104710D"/><stop offset="38.897%" stop-color="#F76B1C"/><stop offset="75.288%" stop-color="#89359E"/><stop offset="100%" stop-color="#2D253A" stop-opacity="0"/></linearGradient><path id="icon-far-a" d="M48.056 16.315c.52-.174.49-.315-.053-.315H48l-13.923 3.173c-1.075.245-2.442 1.188-3.055 2.107L23.23 32.968c-.613.92-1.99 1.82-3.086 2.013l-12.43 2.194c-1.09.193-1.49 1.11-.898 2.037l-.166-.26c.89 1.396 2.932 2.328 4.587 2.078l15.666-2.362c1.092-.165 2.305-1.14 2.698-2.155l5.547-14.27c.4-1.025 1.563-2.137 2.617-2.49l10.292-3.435z"/></defs><g fill="none" fill-rule="evenodd" transform="translate(-1021.000000, -478.000000) translate(580.000000, 470.000000) translate(441.000000, 8.000000)"><g fill-rule="evenodd"><use fill="#353974" xlink:href="#icon-far-a"/><use fill="url(#icon-far-b)" xlink:href="#icon-far-a"/></g><ellipse cx="11.5" cy="38.5" fill="#02346B" rx="5.5" ry="2.5"/><path fill="#FA6F28" d="M48.5 17c1.38 0 2.5-.448 2.5-1s-1.12-1-2.5-1-2.5.448-2.5 1 1.12 1 2.5 1z"/><path fill="#FFF" d="M22 18.034c0 1.53-.38 3.28-1.144 5.253-.645 1.677-1.555 3.487-2.728 5.43-.94 1.53-2.024 3.118-3.256 4.766-.88 1.177-1.79 2.31-2.728 3.398L11 38.207 9.856 36.88c-.94-1.087-1.848-2.22-2.728-3.397-1.232-1.648-2.317-3.237-3.256-4.767-1.173-1.942-2.083-3.752-2.728-5.43C.38 21.317 0 19.567 0 18.035c0-2 .49-3.847 1.474-5.54.983-1.69 2.317-3.03 4.004-4.015C7.165 7.492 9.005 7 11 7s3.835.493 5.522 1.48c1.687.984 3.02 2.323 4.004 4.015.983 1.692 1.474 3.54 1.474 5.54z"/><path fill="#02346B" d="M7 18.554c0 1.23.446 2.277 1.34 3.145.892.866 1.955 1.3 3.187 1.3 1.232 0 2.285-.434 3.16-1.3.876-.87 1.313-1.917 1.313-3.146 0-1.23-.446-2.295-1.34-3.2C13.77 14.453 12.715 14 11.5 14c-1.214 0-2.268.452-3.16 1.355-.894.904-1.34 1.97-1.34 3.2z"/><g><path fill="#FFF" d="M54 5.716c0 .765-.19 1.64-.572 2.626-.323.84-.777 1.744-1.364 2.715-.47.765-1.012 1.56-1.628 2.383-.44.59-.895 1.155-1.364 1.7l-.572.66-.572-.66c-.47-.545-.924-1.11-1.364-1.7-.616-.824-1.16-1.618-1.628-2.383-.587-.97-1.04-1.876-1.364-2.715-.38-.986-.572-1.86-.572-2.626 0-1 .246-1.924.737-2.77.49-.846 1.16-1.515 2.002-2.008.842-.493 1.763-.74 2.76-.74.997 0 1.918.247 2.76.74.844.493 1.512 1.162 2.003 2.008.49.846.737 1.77.737 2.77z"/><path fill="#02346B" d="M46.438 6.286c0 .57.204 1.056.613 1.458.41.403.898.604 1.462.604.565 0 1.048-.2 1.45-.604.4-.402.6-.888.6-1.458s-.204-1.064-.613-1.483c-.41-.42-.893-.63-1.45-.63-.557 0-1.04.21-1.45.63-.408.42-.612.913-.612 1.483z"/></g></g></g><g id="icon-forward"><defs><linearGradient id="icon-forward-a" x1="88.748%" x2="7.338%" y1="-41.512%" y2="132.219%"><stop offset="0%" stop-color="#F76B1C"/><stop offset="59.813%" stop-color="#89359E"/><stop offset="100%" stop-color="#2D253A"/></linearGradient></defs><g fill="none" fill-rule="evenodd"><path fill="#02346B" d="M28 41V2.005C28 .898 27.113 0 26.002 0h-4.004C20.895 0 20 .894 20 2.005v38.993L28 41z"/><g fill="#02346B"><path d="M21 41s-3.516-5.05-8.53-5.05C18.233 38.08 18 41 18 41h3zM28.013 41s1.483-3.55 4.598-5.173C29.614 39.13 30.014 41 30.014 41h-2z"/><path d="M26 41s2.015-6.045 7.346-8.178C28.016 37.087 30 41 30 41h-4zM22 41s-2.065-6.117-8.463-7.183c5.338 3.2 5.338 7.183 5.338 7.183H22z"/></g><path fill="url(#icon-forward-a)" d="M37.53 19l-25.505.283c-.574 0-1.15.227-1.562.636l-3.24 3.2c-.298.295-.298.75 0 1.044l3.24 3.2c.413.41.988.636 1.562.636l25.505-.283c.804 0 1.47-.66 1.47-1.453v-5.81c0-.796-.666-1.454-1.47-1.454z" transform="translate(-1346.000000, -478.000000) translate(580.000000, 470.000000) translate(766.000000, 8.000000) translate(23.000000, 23.500000) rotate(2.000000) translate(-23.000000, -23.500000)"/><path fill="#FFF" d="M48.57 7.405l-4.305-4.07c-.55-.52-1.297-.792-2.034-.766L2.6 3.952C1.566 3.99.74 4.886.778 5.933l.266 7.65C1.08 14.63 1.966 15.465 3 15.43l39.63-1.385c.74-.025 1.465-.35 1.977-.906l4.01-4.36c.37-.403.35-1-.047-1.375z"/></g></g><g id="icon-fast"><defs><linearGradient id="icon-fast-b" x1="92.413%" x2="0%" y1="79.899%" y2="79.899%"><stop offset="0%" stop-color="#F76B1C"/><stop offset="71.257%" stop-color="#89359E"/><stop offset="100%" stop-color="#2D253A" stop-opacity="0"/></linearGradient><path id="icon-fast-a" d="M5 19c2.21 0 4-1.79 4-4s-1.79-4-4-4-4 1.79-4 4 1.79 4 4 4z"/><mask id="icon-fast-c" width="12" height="12" x="-2" y="-2"><path fill="#fff" d="M-1 9h12v12H-1z"/><use xlink:href="#icon-fast-a"/></mask></defs><g fill="none" fill-rule="evenodd" transform="translate(-704.000000, -479.000000) translate(580.000000, 470.000000) translate(124.000000, 9.000000)"><path fill="#02346B" d="M5.854 41.076C2.2 36.73 0 31.122 0 25 0 11.193 11.193 0 25 0s25 11.193 25 25c0 6.122-2.2 11.73-5.854 16.076H5.854z"/><path fill="url(#icon-fast-b)" d="M7.512 14.872C11.01 8.846 17.532 4.794 25 4.794c9.27 0 17.082 6.243 19.462 14.754l-9.27 5.092c-.19-5.466-4.68-9.84-10.192-9.84-4.457 0-8.246 2.86-9.634 6.842l-7.854-6.77z"/><path fill="#FFF" stroke="#FFF" stroke-width="2" d="M25.504 25.057s4.104-.296 8.926-2.01c4.692-1.67 8.798-3.73 9.062-3.153.265.58-3.907 2.896-7.94 6.04-4.104 3.2-6.593 7.246-6.593 7.246"/><g transform="translate(31.261379, 26.587521) rotate(16.000000) translate(-31.261379, -26.587521) translate(21.261379, 16.587521) translate(5.000000, 15.000000) rotate(-1.000000) translate(-5.000000, -15.000000)"><use fill="#02346B" xlink:href="#icon-fast-a"/><use stroke="#FFF" stroke-width="4" mask="url(#icon-fast-c)" xlink:href="#icon-fast-a"/></g><ellipse cx="25" cy="9" fill="#FFF" rx="1" ry="2"/><ellipse cx="42" cy="29" fill="#FFF" rx="1" ry="2" transform="translate(42.000000, 29.000000) rotate(-270.000000) translate(-42.000000, -29.000000)"/><ellipse cx="8.106" cy="29" fill="#FFF" rx="1" ry="2" transform="translate(8.106445, 29.000000) rotate(-270.000000) translate(-8.106445, -29.000000)"/><ellipse cx="12.883" cy="14.969" fill="#FFF" rx="1" ry="2" transform="translate(12.882882, 14.969347) rotate(-224.000000) translate(-12.882882, -14.969347)"/><ellipse cx="37.883" cy="14.969" fill="#FFF" rx="1" ry="2" transform="translate(37.882882, 14.969347) scale(1, -1) rotate(-224.000000) translate(-37.882882, -14.969347)"/></g></g></defs><use width="50" height="42" x="2" y="0" xlink:href="#icon-fast"/><use width="54" height="42" x="0" y="44" xlink:href="#icon-far"/><use width="49" height="41" x="2" y="88" xlink:href="#icon-forward"/></svg>