<svg xmlns="http://www.w3.org/2000/svg" width="300" height="300" viewBox="0 0 300 300"><defs><style>.a,.b{fill:none}.b{clip-rule:evenodd}.c,.z{fill:#ff78c5}.d{clip-path:url(#a)}.e{clip-path:url(#b)}.f{fill:#e1e1e2}.g{isolation:isolate}.h{clip-path:url(#c)}.i{clip-path:url(#d)}.j{fill:#fff}.k{clip-path:url(#f)}.l{clip-path:url(#g)}.m{clip-path:url(#i)}.n{clip-path:url(#k)}.o{clip-path:url(#m)}.p{fill:#808285}.q{clip-path:url(#o)}.r{clip-path:url(#q)}.s{clip-path:url(#s)}.t{clip-path:url(#u)}.u{clip-path:url(#w)}.v{clip-path:url(#y)}.w{clip-path:url(#aa)}.x{clip-path:url(#ac)}.y{fill:#373538}.z{fill-rule:evenodd}</style><clipPath id="a" transform="translate(-2 -2)"><path d="M74.8 100.4h166.7v114.3H74.8z" class="a"/></clipPath><clipPath id="b" transform="translate(-2 -2)"><path d="M-81-3954h1440v6046H-81z" class="a"/></clipPath><clipPath id="c" transform="translate(-2 -2)"><path d="M62 214h16v14H62z" class="a"/></clipPath><clipPath id="d" transform="translate(-2 -2)"><path d="M74.8 214.7c0 7 7.1 12.7 0 12.7A12.8 12.8 0 0 1 62 214.7h12.8z" class="b"/></clipPath><clipPath id="f" transform="translate(-2 -2)"><path d="M62 75h180v153H62z" class="a"/></clipPath><clipPath id="g" transform="translate(-2 -2)"><path d="M62 75h153.9v139.7H62z" class="a"/></clipPath><clipPath id="i" transform="translate(-2 -2)"><path d="M74.8 214.7h153.9v12.7H74.8z" class="a"/></clipPath><clipPath id="k" transform="translate(-2 -2)"><path d="M241.5 214.7a12.8 12.8 0 0 1-25.6 0h25.6z" class="b"/></clipPath><clipPath id="m" transform="translate(-2 -2)"><path d="M146.8 124.2h56.3v4.15h-56.3z" class="a"/></clipPath><clipPath id="o" transform="translate(-2 -2)"><path d="M146.8 138.8h56.3v4.15h-56.3z" class="a"/></clipPath><clipPath id="q" transform="translate(-2 -2)"><path d="M146.8 153.5h56.3v4.15h-56.3z" class="a"/></clipPath><clipPath id="s" transform="translate(-2 -2)"><path d="M146.8 168.1h56.3v4.15h-56.3z" class="a"/></clipPath><clipPath id="u" transform="translate(-2 -2)"><path d="M75.5 182.8h127.6v4.15H75.5z" class="a"/></clipPath><clipPath id="w" transform="translate(-2 -2)"><path d="M74.8 197.4H203v4.15H74.8z" class="a"/></clipPath><clipPath id="y" transform="translate(-2 -2)"><path d="M74.8 212H203v4.15H74.8z" class="a"/></clipPath><clipPath id="aa" transform="translate(-2 -2)"><path d="M74.8 87.7H203v12.7H74.8z" class="a"/></clipPath><clipPath id="ac" transform="translate(-2 -2)"><path d="M74.8 106.7H203v6.35H74.8z" class="a"/></clipPath></defs><circle cx="150" cy="150" r="150" class="c"/><path d="M67.8 93.4h176.7v124.3H67.8z" class="d e f"/><path d="M55 207.7h26v22.7H55z" class="g h i j"/><g class="g"><g class="k"><path d="M55 68h163.9v149.7H55z" class="l k j"/><path d="M67.8 207.7h163.9v22.7H67.8z" class="m k j"/><path d="M208.9 207.7h35.6v22.7h-35.6z" class="n k f"/><path d="M139.8 117.2h66.3v14.15h-66.3z" class="o k p"/><path d="M139.8 131.8h66.3v14.15h-66.3z" class="q k p"/><path d="M139.8 146.5h66.3v14.15h-66.3z" class="r k p"/><path d="M139.8 161.1h66.3v14.15h-66.3z" class="s k p"/><path d="M68.5 175.8h137.6v14.15H68.5z" class="t k p"/><path d="M67.8 190.4H206v14.15H67.8z" class="u k p"/><path d="M67.8 205H206v14.15H67.8z" class="v k p"/><path d="M67.8 80.7H206v22.7H67.8z" class="w k c"/><path d="M67.8 99.7H206v16.35H67.8z" class="x k y"/></g><path d="M105.3 174.3a2.2 2.2 0 0 1-3 0l-21.6-20.7c-.3-.2-7.9-7.2-7.9-15.4 0-10.1 6.2-16.1 16.5-16.1 6.1 0 11.7 4.7 14.5 7.4 2.7-2.7 8.4-7.4 14.5-7.4 10.3 0 16.5 6 16.5 16.1 0 8.3-7.6 15.2-7.9 15.5z" class="z"/></g></svg>