<svg xmlns="http://www.w3.org/2000/svg" id="Layer_1" viewBox="0 0 220 130"><style>.st0{fill:none}.st1{fill:#fff0b8}.st2{fill:#ffce07}.st3{fill:#ffda70}</style><path d="M-18 0h250v130H-18z" class="st0"/><path d="M60.8 11.7L6.2 93.6 64 119.2l56.9-31.1z" class="st1"/><path d="M171.6 42.5L142 88.1l32.2 16.4z" class="st2"/><path d="M171.5 42.6l34.9 45.5-32.2 16.4z" class="st3"/><g><path d="M171.7 23.1c-.7 0-1.4.6-1.4 1.4V33c0 .8.6 1.4 1.4 1.4s1.4-.6 1.4-1.4v-8.5c0-.8-.6-1.4-1.4-1.4zM191.3 28.8c-.6-.4-1.5-.2-1.9.4l-4.4 7.2c-.4.7-.2 1.5.4 2 .6.4 1.5.2 1.9-.4l4.4-7.2c.4-.7.2-1.5-.4-2zM204.1 44.3c-.3-.7-1.1-1-1.8-.7l-7.5 3.5c-.7.3-1 1.2-.7 1.9s1.1 1 1.8.7l7.5-3.5c.7-.4 1-1.2.7-1.9z" class="st1"/><g><path d="M152.1 28.8c.6-.4 1.5-.2 1.9.4l4.4 7.2c.4.7.2 1.5-.4 2-.6.4-1.5.2-1.9-.4l-4.4-7.2c-.4-.7-.2-1.5.4-2zM139.2 44.3c.3-.7 1.1-1 1.8-.7l7.5 3.5c.7.3 1 1.2.7 1.9s-1.1 1-1.8.7l-7.5-3.5c-.6-.4-1-1.2-.7-1.9z" class="st1"/></g></g><g><path d="M61.7 11L90 48.9l-26 12zM93.2 100.8L62.8 63.6l28.4-13.2zM64 68.6l29.6 35.7-27.4 14.4z" class="st3"/><path d="M36.5 101.5l23.6-38.1-26.2-10.1zM61.6 65.4L36.3 107 64 119.2zM31.9 55.3L6.2 93.6l27.6 12.3zM60 11.9L47.9 30.4 60.5 34zM48.2 54.8l11.9-19.5-12.4-3.4zM61 37.1L49.4 56.9l12.2 3.9zM46.1 33.8L34.3 51l13 5.4z" class="st2"/><path d="M92.8 53.4l13.6 17.4-12.3 4.7zM108 95.3L94.6 76.8l12.1-4.3zM94.5 78.7l12.2 18.4-11 5.2zM109.1 73.4l11.8 14.7-11.4 7.2z" class="st3"/></g></svg>