<svg xmlns="http://www.w3.org/2000/svg" id="Layer_1" viewBox="0 0 130 130"><style>.st0{fill:none}.st1{fill:#5bc1a4}.st2{fill:#d2e7c0}</style><path d="M-60 0h250v130H-60z" class="st0"/><path d="M22.5 50h85v59.1h-85z" class="st1"/><path d="M65 89.5L22.5 50 65 15.5 107.5 50z" class="st1"/><path d="M87.3 27h12.2v23.9H87.3z" class="st1"/><g><path d="M12.1 82.2h11.7v32.7H12.1z" class="st2"/><path d="M18 87.6l-5.9-5.4 5.9-5.4 5.8 5.4zM30.9 82.2h11.7v32.7H30.9z" class="st2"/><path d="M36.8 87.6l-5.9-5.4 5.9-5.4 5.8 5.4zM49.7 82.2h11.7v32.7H49.7z" class="st2"/><path d="M55.6 87.6l-5.9-5.4 5.9-5.4 5.8 5.4z" class="st2"/><g><path d="M68.5 82.2h11.7v32.7H68.5z" class="st2"/><path d="M74.4 87.6l-5.9-5.4 5.9-5.4 5.8 5.4z" class="st2"/></g><g><path d="M87.3 82.2H99v32.7H87.3z" class="st2"/><path d="M93.2 87.6l-5.9-5.4 5.9-5.4 5.8 5.4z" class="st2"/></g><g><path d="M106.2 82.2h11.7v32.7h-11.7z" class="st2"/><path d="M112 87.6l-5.8-5.4 5.8-5.4 5.9 5.4z" class="st2"/></g></g></svg>